<svg xmlns="http://www.w3.org/2000/svg" viewBox="0 0 512 512">
  <defs>
    <linearGradient id="flame" x1="0%" y1="100%" x2="0%" y2="0%">
      <stop offset="0%" stop-color="#FF4500"/>
      <stop offset="50%" stop-color="#FF6B35"/>
      <stop offset="100%" stop-color="#FFD700"/>
    </linearGradient>
    <linearGradient id="inner" x1="0%" y1="100%" x2="0%" y2="0%">
      <stop offset="0%" stop-color="#FF6B35"/>
      <stop offset="100%" stop-color="#FFEB3B"/>
    </linearGradient>
  </defs>
  <!-- Outer flame -->
  <path d="M256 16c0 0-48 80-48 160c0 32 8 56 16 80c-32-48-64-80-64-160c0 0-96 96-96 224c0 106 86 192 192 192s192-86 192-192c0-128-96-224-96-224c0 80-32 112-64 160c8-24 16-48 16-80c0-80-48-160-48-160z" fill="url(#flame)"/>
  <!-- Inner flame -->
  <path d="M256 192c0 0-24 48-24 112c0 48 24 96 24 128c0-32 24-80 24-128c0-64-24-112-24-112z" fill="url(#inner)" opacity="0.9"/>
  <!-- Play triangle -->
  <path d="M228 320l72-44-72-44z" fill="white" opacity="0.95"/>
</svg>
